<mxfile host="app.diagrams.net" modified="2021-06-02T13:54:19.343Z" agent="5.0 (X11; Linux x86_64) AppleWebKit/537.36 (KHTML, like Gecko) Chrome/90.0.4430.212 Safari/537.36" etag="cHU64sqVg3AVi7S2cGb4" version="14.7.3" type="github">
  <diagram name="Page-1" id="5f0bae14-7c28-e335-631c-24af17079c00">
    <mxGraphModel dx="1422" dy="801" grid="1" gridSize="10" guides="1" tooltips="1" connect="1" arrows="1" fold="1" page="1" pageScale="1" pageWidth="1100" pageHeight="850" background="#ffffff" math="0" shadow="1">
      <root>
        <mxCell id="0" />
        <mxCell id="1" parent="0" />
        <mxCell id="-P8GrV4rSHHgKXdaOTVs-172" value="" style="ellipse;whiteSpace=wrap;html=1;aspect=fixed;fontFamily=Georgia;fontSize=23;strokeColor=#82b366;fillColor=#d5e8d4;" vertex="1" parent="1">
          <mxGeometry x="430" y="375" width="100" height="100" as="geometry" />
        </mxCell>
        <mxCell id="39150e848f15840c-1" value="" style="verticalAlign=top;align=left;spacingTop=8;spacingLeft=2;spacingRight=12;shape=cube;size=10;direction=south;fontStyle=4;html=1;rounded=0;shadow=0;comic=0;labelBackgroundColor=none;strokeWidth=1;fontFamily=Verdana;fontSize=12;fillColor=#ffe6cc;strokeColor=#d79b00;" parent="1" vertex="1">
          <mxGeometry x="10" y="108" width="330" height="500" as="geometry" />
        </mxCell>
        <mxCell id="39150e848f15840c-2" value="" style="verticalAlign=top;align=left;spacingTop=8;spacingLeft=2;spacingRight=12;shape=cube;size=10;direction=south;fontStyle=4;html=1;rounded=0;shadow=0;comic=0;labelBackgroundColor=none;strokeWidth=1;fontFamily=Verdana;fontSize=12;fillColor=#dae8fc;strokeColor=#6c8ebf;" parent="1" vertex="1">
          <mxGeometry x="750" y="104" width="330" height="500" as="geometry" />
        </mxCell>
        <mxCell id="39150e848f15840c-3" value="Site Infernum&lt;br&gt;&lt;br&gt;&lt;br&gt;Site web permettant de renseigner des&amp;nbsp;&lt;br&gt;informations sur les projet et données&amp;nbsp;&lt;br&gt;hébergés&lt;br&gt;&lt;br&gt;Objectif : &lt;br&gt;1-Renseigner simplement&lt;br&gt;(via questionnaire php) des &quot;métadonnées&quot;&amp;nbsp;&lt;br&gt;sur les projets.&lt;br&gt;2-Visualiser une liste des projets, auteurs et&amp;nbsp;&lt;br&gt;type de données traités à Passages" style="verticalAlign=top;align=left;spacingTop=8;spacingLeft=2;spacingRight=12;shape=cube;size=10;direction=south;fontStyle=4;html=1;rounded=0;shadow=0;comic=0;labelBackgroundColor=none;strokeWidth=1;fontFamily=Georgia;fontSize=12;fillColor=#e1d5e7;strokeColor=#9673a6;" parent="1" vertex="1">
          <mxGeometry x="410" y="600" width="260" height="230" as="geometry" />
        </mxCell>
        <mxCell id="-P8GrV4rSHHgKXdaOTVs-6" value="&lt;font color=&quot;#67ab9f&quot;&gt;Archivage&lt;/font&gt;" style="text;html=1;strokeColor=none;fillColor=none;align=center;verticalAlign=middle;whiteSpace=wrap;rounded=0;fontFamily=Georgia;fontStyle=1" vertex="1" parent="1">
          <mxGeometry x="440" y="412.25" width="80" height="20" as="geometry" />
        </mxCell>
        <mxCell id="-P8GrV4rSHHgKXdaOTVs-8" value="&lt;b&gt;HumaNum Box Passages Données Froides&lt;/b&gt;" style="text;html=1;strokeColor=none;fillColor=none;align=center;verticalAlign=middle;whiteSpace=wrap;rounded=0;fontFamily=Georgia;" vertex="1" parent="1">
          <mxGeometry x="762" y="84" width="320" height="20" as="geometry" />
        </mxCell>
        <mxCell id="-P8GrV4rSHHgKXdaOTVs-9" value="Sharedoc Pôle Ard Données Chaudes" style="text;html=1;strokeColor=none;fillColor=none;align=center;verticalAlign=middle;whiteSpace=wrap;rounded=0;fontFamily=Georgia;fontStyle=1" vertex="1" parent="1">
          <mxGeometry x="10" y="88" width="320" height="20" as="geometry" />
        </mxCell>
        <mxCell id="-P8GrV4rSHHgKXdaOTVs-12" value="" style="rounded=1;whiteSpace=wrap;html=1;fontFamily=Georgia;gradientColor=#ffffff;strokeColor=#FFB366;" vertex="1" parent="1">
          <mxGeometry x="20" y="125.5" width="290" height="472.5" as="geometry" />
        </mxCell>
        <mxCell id="-P8GrV4rSHHgKXdaOTVs-15" value="PurgARDtory" style="text;html=1;strokeColor=none;fillColor=none;align=center;verticalAlign=middle;whiteSpace=wrap;rounded=0;fontFamily=Georgia;fontStyle=1" vertex="1" parent="1">
          <mxGeometry x="50" y="125.5" width="80" height="20" as="geometry" />
        </mxCell>
        <mxCell id="-P8GrV4rSHHgKXdaOTVs-17" value="" style="whiteSpace=wrap;html=1;fontFamily=Georgia;strokeColor=#FFB366;fillColor=#ffffff;gradientColor=#ffffff;" vertex="1" parent="1">
          <mxGeometry x="30" y="157" width="260" height="180" as="geometry" />
        </mxCell>
        <mxCell id="-P8GrV4rSHHgKXdaOTVs-24" value="Virgile" style="text;html=1;strokeColor=#d79b00;fillColor=#ffe6cc;align=center;verticalAlign=middle;whiteSpace=wrap;rounded=0;fontFamily=Georgia;fontStyle=2" vertex="1" parent="1">
          <mxGeometry x="30" y="157" width="40" height="20" as="geometry" />
        </mxCell>
        <mxCell id="-P8GrV4rSHHgKXdaOTVs-27" value="" style="shape=process;whiteSpace=wrap;html=1;backgroundOutline=1;fontFamily=Georgia;strokeColor=#FFB366;fillColor=#ffffff;gradientColor=#ffffff;" vertex="1" parent="1">
          <mxGeometry x="110" y="283" width="100" height="50" as="geometry" />
        </mxCell>
        <mxCell id="-P8GrV4rSHHgKXdaOTVs-28" value="A Archiver" style="text;html=1;strokeColor=#d6b656;fillColor=#fff2cc;align=center;verticalAlign=middle;whiteSpace=wrap;rounded=0;fontFamily=Georgia;" vertex="1" parent="1">
          <mxGeometry x="115" y="297" width="90" height="20" as="geometry" />
        </mxCell>
        <mxCell id="-P8GrV4rSHHgKXdaOTVs-36" value="" style="group" vertex="1" connectable="0" parent="1">
          <mxGeometry x="30" y="191" width="120" height="95" as="geometry" />
        </mxCell>
        <mxCell id="-P8GrV4rSHHgKXdaOTVs-25" value="" style="triangle;whiteSpace=wrap;html=1;fontFamily=Georgia;strokeColor=#FFB366;fillColor=#ffffff;gradientColor=#ffffff;rotation=-90;direction=west;" vertex="1" parent="-P8GrV4rSHHgKXdaOTVs-36">
          <mxGeometry x="15" y="-10" width="90" height="120" as="geometry" />
        </mxCell>
        <mxCell id="-P8GrV4rSHHgKXdaOTVs-33" value="Image" style="rhombus;whiteSpace=wrap;html=1;fontFamily=Georgia;strokeColor=#FFB366;fillColor=#ffffff;gradientColor=#ffffff;" vertex="1" parent="-P8GrV4rSHHgKXdaOTVs-36">
          <mxGeometry x="5" width="50" height="50" as="geometry" />
        </mxCell>
        <mxCell id="-P8GrV4rSHHgKXdaOTVs-34" value="Son" style="rhombus;whiteSpace=wrap;html=1;fontFamily=Georgia;strokeColor=#FFB366;fillColor=#ffffff;gradientColor=#ffffff;" vertex="1" parent="-P8GrV4rSHHgKXdaOTVs-36">
          <mxGeometry x="65" width="50" height="50" as="geometry" />
        </mxCell>
        <mxCell id="-P8GrV4rSHHgKXdaOTVs-35" value="Données" style="rhombus;whiteSpace=wrap;html=1;fontFamily=Georgia;strokeColor=#FFB366;fillColor=#ffffff;gradientColor=#ffffff;" vertex="1" parent="-P8GrV4rSHHgKXdaOTVs-36">
          <mxGeometry x="35" y="35" width="50" height="50" as="geometry" />
        </mxCell>
        <mxCell id="-P8GrV4rSHHgKXdaOTVs-37" value="" style="group" vertex="1" connectable="0" parent="1">
          <mxGeometry x="170" y="192" width="120" height="95" as="geometry" />
        </mxCell>
        <mxCell id="-P8GrV4rSHHgKXdaOTVs-66" value="" style="group" vertex="1" connectable="0" parent="-P8GrV4rSHHgKXdaOTVs-37">
          <mxGeometry y="-1" width="120" height="96" as="geometry" />
        </mxCell>
        <mxCell id="-P8GrV4rSHHgKXdaOTVs-38" value="" style="triangle;whiteSpace=wrap;html=1;fontFamily=Georgia;strokeColor=#FFB366;fillColor=#ffffff;gradientColor=#ffffff;rotation=-90;direction=west;" vertex="1" parent="-P8GrV4rSHHgKXdaOTVs-66">
          <mxGeometry x="15" y="-9" width="90" height="120" as="geometry" />
        </mxCell>
        <mxCell id="-P8GrV4rSHHgKXdaOTVs-39" value="Image" style="rhombus;whiteSpace=wrap;html=1;fontFamily=Georgia;strokeColor=#FFB366;fillColor=#ffffff;gradientColor=#ffffff;" vertex="1" parent="-P8GrV4rSHHgKXdaOTVs-66">
          <mxGeometry x="5" width="50" height="50" as="geometry" />
        </mxCell>
        <mxCell id="-P8GrV4rSHHgKXdaOTVs-40" value="Son" style="rhombus;whiteSpace=wrap;html=1;fontFamily=Georgia;strokeColor=#FFB366;fillColor=#ffffff;gradientColor=#ffffff;" vertex="1" parent="-P8GrV4rSHHgKXdaOTVs-66">
          <mxGeometry x="65" width="50" height="50" as="geometry" />
        </mxCell>
        <mxCell id="-P8GrV4rSHHgKXdaOTVs-41" value="Données" style="rhombus;whiteSpace=wrap;html=1;fontFamily=Georgia;strokeColor=#FFB366;fillColor=#ffffff;gradientColor=#ffffff;" vertex="1" parent="-P8GrV4rSHHgKXdaOTVs-66">
          <mxGeometry x="35" y="35" width="50" height="50" as="geometry" />
        </mxCell>
        <mxCell id="-P8GrV4rSHHgKXdaOTVs-42" value="Projet 1" style="text;html=1;strokeColor=#d6b656;fillColor=#fff2cc;align=center;verticalAlign=middle;whiteSpace=wrap;rounded=0;fontFamily=Georgia;" vertex="1" parent="1">
          <mxGeometry x="65" y="181" width="50" height="20" as="geometry" />
        </mxCell>
        <mxCell id="-P8GrV4rSHHgKXdaOTVs-43" value="Projet 2" style="text;html=1;strokeColor=#d6b656;fillColor=#fff2cc;align=center;verticalAlign=middle;whiteSpace=wrap;rounded=0;fontFamily=Georgia;" vertex="1" parent="1">
          <mxGeometry x="205" y="181" width="50" height="20" as="geometry" />
        </mxCell>
        <mxCell id="-P8GrV4rSHHgKXdaOTVs-44" value="" style="whiteSpace=wrap;html=1;fontFamily=Georgia;strokeColor=#FFB366;fillColor=#ffffff;gradientColor=#ffffff;" vertex="1" parent="1">
          <mxGeometry x="30" y="354" width="260" height="180" as="geometry" />
        </mxCell>
        <mxCell id="-P8GrV4rSHHgKXdaOTVs-45" value="Rubicante" style="text;html=1;strokeColor=#d79b00;fillColor=#ffe6cc;align=center;verticalAlign=middle;whiteSpace=wrap;rounded=0;fontFamily=Georgia;fontStyle=2" vertex="1" parent="1">
          <mxGeometry x="30" y="354" width="60" height="20" as="geometry" />
        </mxCell>
        <mxCell id="-P8GrV4rSHHgKXdaOTVs-46" value="" style="shape=process;whiteSpace=wrap;html=1;backgroundOutline=1;fontFamily=Georgia;strokeColor=#FFB366;fillColor=#ffffff;gradientColor=#ffffff;" vertex="1" parent="1">
          <mxGeometry x="110" y="480" width="100" height="50" as="geometry" />
        </mxCell>
        <mxCell id="-P8GrV4rSHHgKXdaOTVs-47" value="A Archiver" style="text;html=1;strokeColor=#d6b656;fillColor=#fff2cc;align=center;verticalAlign=middle;whiteSpace=wrap;rounded=0;fontFamily=Georgia;" vertex="1" parent="1">
          <mxGeometry x="115" y="494" width="90" height="20" as="geometry" />
        </mxCell>
        <mxCell id="-P8GrV4rSHHgKXdaOTVs-48" value="" style="group" vertex="1" connectable="0" parent="1">
          <mxGeometry x="30" y="388" width="120" height="95" as="geometry" />
        </mxCell>
        <mxCell id="-P8GrV4rSHHgKXdaOTVs-49" value="" style="triangle;whiteSpace=wrap;html=1;fontFamily=Georgia;strokeColor=#FFB366;fillColor=#ffffff;gradientColor=#ffffff;rotation=-90;direction=west;" vertex="1" parent="-P8GrV4rSHHgKXdaOTVs-48">
          <mxGeometry x="15" y="-10" width="90" height="120" as="geometry" />
        </mxCell>
        <mxCell id="-P8GrV4rSHHgKXdaOTVs-50" value="Image" style="rhombus;whiteSpace=wrap;html=1;fontFamily=Georgia;strokeColor=#FFB366;fillColor=#ffffff;gradientColor=#ffffff;" vertex="1" parent="-P8GrV4rSHHgKXdaOTVs-48">
          <mxGeometry x="5" width="50" height="50" as="geometry" />
        </mxCell>
        <mxCell id="-P8GrV4rSHHgKXdaOTVs-51" value="Son" style="rhombus;whiteSpace=wrap;html=1;fontFamily=Georgia;strokeColor=#FFB366;fillColor=#ffffff;gradientColor=#ffffff;" vertex="1" parent="-P8GrV4rSHHgKXdaOTVs-48">
          <mxGeometry x="65" width="50" height="50" as="geometry" />
        </mxCell>
        <mxCell id="-P8GrV4rSHHgKXdaOTVs-52" value="Données" style="rhombus;whiteSpace=wrap;html=1;fontFamily=Georgia;strokeColor=#FFB366;fillColor=#ffffff;gradientColor=#ffffff;" vertex="1" parent="-P8GrV4rSHHgKXdaOTVs-48">
          <mxGeometry x="35" y="35" width="50" height="50" as="geometry" />
        </mxCell>
        <mxCell id="-P8GrV4rSHHgKXdaOTVs-53" value="" style="group" vertex="1" connectable="0" parent="1">
          <mxGeometry x="170" y="389" width="120" height="95" as="geometry" />
        </mxCell>
        <mxCell id="-P8GrV4rSHHgKXdaOTVs-54" value="" style="triangle;whiteSpace=wrap;html=1;fontFamily=Georgia;strokeColor=#FFB366;fillColor=#ffffff;gradientColor=#ffffff;rotation=-90;direction=west;" vertex="1" parent="-P8GrV4rSHHgKXdaOTVs-53">
          <mxGeometry x="15" y="-10" width="90" height="120" as="geometry" />
        </mxCell>
        <mxCell id="-P8GrV4rSHHgKXdaOTVs-55" value="Image" style="rhombus;whiteSpace=wrap;html=1;fontFamily=Georgia;strokeColor=#FFB366;fillColor=#ffffff;gradientColor=#ffffff;" vertex="1" parent="-P8GrV4rSHHgKXdaOTVs-53">
          <mxGeometry x="5" y="-1" width="50" height="50" as="geometry" />
        </mxCell>
        <mxCell id="-P8GrV4rSHHgKXdaOTVs-56" value="Son" style="rhombus;whiteSpace=wrap;html=1;fontFamily=Georgia;strokeColor=#FFB366;fillColor=#ffffff;gradientColor=#ffffff;" vertex="1" parent="-P8GrV4rSHHgKXdaOTVs-53">
          <mxGeometry x="65" y="-1" width="50" height="50" as="geometry" />
        </mxCell>
        <mxCell id="-P8GrV4rSHHgKXdaOTVs-57" value="Données" style="rhombus;whiteSpace=wrap;html=1;fontFamily=Georgia;strokeColor=#FFB366;fillColor=#ffffff;gradientColor=#ffffff;" vertex="1" parent="-P8GrV4rSHHgKXdaOTVs-53">
          <mxGeometry x="35" y="34" width="50" height="50" as="geometry" />
        </mxCell>
        <mxCell id="-P8GrV4rSHHgKXdaOTVs-58" value="Projet A" style="text;html=1;strokeColor=#d6b656;fillColor=#fff2cc;align=center;verticalAlign=middle;whiteSpace=wrap;rounded=0;fontFamily=Georgia;" vertex="1" parent="1">
          <mxGeometry x="65" y="378" width="50" height="20" as="geometry" />
        </mxCell>
        <mxCell id="-P8GrV4rSHHgKXdaOTVs-59" value="Projet B" style="text;html=1;strokeColor=#d6b656;fillColor=#fff2cc;align=center;verticalAlign=middle;whiteSpace=wrap;rounded=0;fontFamily=Georgia;" vertex="1" parent="1">
          <mxGeometry x="205" y="378" width="50" height="20" as="geometry" />
        </mxCell>
        <mxCell id="-P8GrV4rSHHgKXdaOTVs-60" value="..." style="text;html=1;strokeColor=none;fillColor=none;align=center;verticalAlign=middle;whiteSpace=wrap;rounded=0;fontFamily=Georgia;fontSize=32;" vertex="1" parent="1">
          <mxGeometry x="145" y="548" width="40" height="20" as="geometry" />
        </mxCell>
        <mxCell id="-P8GrV4rSHHgKXdaOTVs-61" style="edgeStyle=none;rounded=0;html=1;dashed=1;labelBackgroundColor=none;startArrow=none;startFill=0;startSize=8;endArrow=open;endFill=0;endSize=16;fontFamily=Verdana;fontSize=12;exitX=1;exitY=0.5;exitDx=0;exitDy=0;entryX=0;entryY=0.5;entryDx=0;entryDy=0;" edge="1" parent="1" source="-P8GrV4rSHHgKXdaOTVs-25" target="-P8GrV4rSHHgKXdaOTVs-27">
          <mxGeometry relative="1" as="geometry">
            <mxPoint x="320.89" y="814.1428571428571" as="sourcePoint" />
            <mxPoint x="110" y="328" as="targetPoint" />
            <Array as="points">
              <mxPoint x="50" y="298" />
            </Array>
          </mxGeometry>
        </mxCell>
        <mxCell id="-P8GrV4rSHHgKXdaOTVs-62" style="edgeStyle=none;rounded=0;html=1;dashed=1;labelBackgroundColor=none;startArrow=none;startFill=0;startSize=8;endArrow=open;endFill=0;endSize=16;fontFamily=Verdana;fontSize=12;exitX=1;exitY=0.5;exitDx=0;exitDy=0;entryX=1;entryY=0.5;entryDx=0;entryDy=0;" edge="1" parent="1" source="-P8GrV4rSHHgKXdaOTVs-38" target="-P8GrV4rSHHgKXdaOTVs-27">
          <mxGeometry relative="1" as="geometry">
            <mxPoint x="100" y="296" as="sourcePoint" />
            <mxPoint x="120" y="338" as="targetPoint" />
            <Array as="points">
              <mxPoint x="270" y="298" />
            </Array>
          </mxGeometry>
        </mxCell>
        <mxCell id="-P8GrV4rSHHgKXdaOTVs-63" style="edgeStyle=none;rounded=0;html=1;dashed=1;labelBackgroundColor=none;startArrow=none;startFill=0;startSize=8;endArrow=open;endFill=0;endSize=16;fontFamily=Verdana;fontSize=12;exitX=1;exitY=0.5;exitDx=0;exitDy=0;entryX=1;entryY=0.5;entryDx=0;entryDy=0;" edge="1" parent="1">
          <mxGeometry relative="1" as="geometry">
            <mxPoint x="230" y="484" as="sourcePoint" />
            <mxPoint x="210" y="505" as="targetPoint" />
            <Array as="points">
              <mxPoint x="270" y="495" />
            </Array>
          </mxGeometry>
        </mxCell>
        <mxCell id="-P8GrV4rSHHgKXdaOTVs-64" style="edgeStyle=none;rounded=0;html=1;dashed=1;labelBackgroundColor=none;startArrow=none;startFill=0;startSize=8;endArrow=open;endFill=0;endSize=16;fontFamily=Verdana;fontSize=12;exitX=1;exitY=0.5;exitDx=0;exitDy=0;entryX=0;entryY=0.5;entryDx=0;entryDy=0;" edge="1" parent="1">
          <mxGeometry relative="1" as="geometry">
            <mxPoint x="90" y="484" as="sourcePoint" />
            <mxPoint x="110" y="506" as="targetPoint" />
            <Array as="points">
              <mxPoint x="50" y="496" />
            </Array>
          </mxGeometry>
        </mxCell>
        <mxCell id="-P8GrV4rSHHgKXdaOTVs-145" value="" style="shape=flexArrow;endArrow=classic;html=1;fontFamily=Georgia;fontSize=32;entryX=0.488;entryY=0.994;entryDx=0;entryDy=0;entryPerimeter=0;startArrow=none;strokeColor=#B3B3B3;" edge="1" parent="1" source="-P8GrV4rSHHgKXdaOTVs-172" target="39150e848f15840c-2">
          <mxGeometry width="50" height="50" relative="1" as="geometry">
            <mxPoint x="450" y="420" as="sourcePoint" />
            <mxPoint x="750" y="368.25" as="targetPoint" />
            <Array as="points">
              <mxPoint x="550" y="420" />
              <mxPoint x="550" y="380" />
            </Array>
          </mxGeometry>
        </mxCell>
        <mxCell id="-P8GrV4rSHHgKXdaOTVs-148" value="" style="shape=flexArrow;endArrow=classic;html=1;fontFamily=Georgia;fontSize=32;exitX=1;exitY=1;exitDx=0;exitDy=0;entryX=0.42;entryY=0.99;entryDx=0;entryDy=0;entryPerimeter=0;strokeColor=#B3B3B3;" edge="1" parent="1" source="-P8GrV4rSHHgKXdaOTVs-46" target="-P8GrV4rSHHgKXdaOTVs-172">
          <mxGeometry width="50" height="50" relative="1" as="geometry">
            <mxPoint x="520" y="418" as="sourcePoint" />
            <mxPoint x="450" y="460" as="targetPoint" />
            <Array as="points">
              <mxPoint x="440" y="520" />
            </Array>
          </mxGeometry>
        </mxCell>
        <mxCell id="-P8GrV4rSHHgKXdaOTVs-149" value="" style="shape=flexArrow;endArrow=classic;html=1;fontFamily=Georgia;fontSize=32;exitX=1;exitY=1;exitDx=0;exitDy=0;entryX=0.5;entryY=0;entryDx=0;entryDy=0;strokeColor=#B3B3B3;" edge="1" parent="1" source="-P8GrV4rSHHgKXdaOTVs-27" target="-P8GrV4rSHHgKXdaOTVs-172">
          <mxGeometry width="50" height="50" relative="1" as="geometry">
            <mxPoint x="520" y="418" as="sourcePoint" />
            <mxPoint x="450" y="380" as="targetPoint" />
            <Array as="points">
              <mxPoint x="440" y="333" />
            </Array>
          </mxGeometry>
        </mxCell>
        <mxCell id="-P8GrV4rSHHgKXdaOTVs-151" value="Projet Dante" style="text;html=1;align=center;verticalAlign=middle;whiteSpace=wrap;rounded=0;fontFamily=Georgia;fontSize=32;fontColor=#EA6B66;" vertex="1" parent="1">
          <mxGeometry x="380" y="18" width="330" height="70" as="geometry" />
        </mxCell>
        <mxCell id="-P8GrV4rSHHgKXdaOTVs-152" value="" style="triangle;whiteSpace=wrap;html=1;fontFamily=Georgia;strokeColor=#6c8ebf;rotation=-90;direction=west;" vertex="1" parent="1">
          <mxGeometry x="799.25" y="88" width="230" height="337.5" as="geometry" />
        </mxCell>
        <mxCell id="-P8GrV4rSHHgKXdaOTVs-74" value="" style="triangle;whiteSpace=wrap;html=1;fontFamily=Georgia;strokeColor=#6c8ebf;rotation=-90;direction=west;" vertex="1" parent="1">
          <mxGeometry x="797.5" y="160.25" width="90" height="120" as="geometry" />
        </mxCell>
        <mxCell id="-P8GrV4rSHHgKXdaOTVs-75" value="Image" style="rhombus;whiteSpace=wrap;html=1;fontFamily=Georgia;strokeColor=#6c8ebf;" vertex="1" parent="1">
          <mxGeometry x="787.5" y="170.25" width="50" height="50" as="geometry" />
        </mxCell>
        <mxCell id="-P8GrV4rSHHgKXdaOTVs-76" value="Son" style="rhombus;whiteSpace=wrap;html=1;fontFamily=Georgia;strokeColor=#6c8ebf;" vertex="1" parent="1">
          <mxGeometry x="847.5" y="170.25" width="50" height="50" as="geometry" />
        </mxCell>
        <mxCell id="-P8GrV4rSHHgKXdaOTVs-77" value="Données" style="rhombus;whiteSpace=wrap;html=1;fontFamily=Georgia;strokeColor=#6c8ebf;" vertex="1" parent="1">
          <mxGeometry x="817.5" y="205.25" width="50" height="50" as="geometry" />
        </mxCell>
        <mxCell id="-P8GrV4rSHHgKXdaOTVs-84" value="Virgile" style="text;html=1;strokeColor=#6c8ebf;align=center;verticalAlign=middle;whiteSpace=wrap;rounded=0;fontFamily=Georgia;fillColor=#dae8fc;" vertex="1" parent="1">
          <mxGeometry x="817.5" y="160.25" width="50" height="20" as="geometry" />
        </mxCell>
        <mxCell id="-P8GrV4rSHHgKXdaOTVs-125" value="" style="triangle;whiteSpace=wrap;html=1;fontFamily=Georgia;strokeColor=#6c8ebf;rotation=-90;direction=west;" vertex="1" parent="1">
          <mxGeometry x="942.5" y="160.25" width="90" height="120" as="geometry" />
        </mxCell>
        <mxCell id="-P8GrV4rSHHgKXdaOTVs-126" value="Image" style="rhombus;whiteSpace=wrap;html=1;fontFamily=Georgia;strokeColor=#6c8ebf;" vertex="1" parent="1">
          <mxGeometry x="932.5" y="170.25" width="50" height="50" as="geometry" />
        </mxCell>
        <mxCell id="-P8GrV4rSHHgKXdaOTVs-127" value="Son" style="rhombus;whiteSpace=wrap;html=1;fontFamily=Georgia;strokeColor=#6c8ebf;" vertex="1" parent="1">
          <mxGeometry x="992.5" y="170.25" width="50" height="50" as="geometry" />
        </mxCell>
        <mxCell id="-P8GrV4rSHHgKXdaOTVs-128" value="Données" style="rhombus;whiteSpace=wrap;html=1;fontFamily=Georgia;strokeColor=#6c8ebf;" vertex="1" parent="1">
          <mxGeometry x="962.5" y="205.25" width="50" height="50" as="geometry" />
        </mxCell>
        <mxCell id="-P8GrV4rSHHgKXdaOTVs-129" value="Rubicante" style="text;html=1;strokeColor=#6c8ebf;align=center;verticalAlign=middle;whiteSpace=wrap;rounded=0;fontFamily=Georgia;fillColor=#dae8fc;" vertex="1" parent="1">
          <mxGeometry x="955" y="160.25" width="65" height="20" as="geometry" />
        </mxCell>
        <mxCell id="-P8GrV4rSHHgKXdaOTVs-154" value="&lt;font color=&quot;#7ea6e0&quot;&gt;Projet&amp;nbsp;&lt;span style=&quot;font-family: &amp;#34;helvetica&amp;#34; , sans-serif ; font-size: 14px ; background-color: rgb(255 , 255 , 255)&quot;&gt;α&lt;/span&gt;&lt;/font&gt;" style="text;html=1;strokeColor=none;fillColor=none;align=center;verticalAlign=middle;whiteSpace=wrap;rounded=0;fontFamily=Georgia;fontSize=23;fontColor=#EA6B66;" vertex="1" parent="1">
          <mxGeometry x="849.25" y="271.75" width="130" height="20" as="geometry" />
        </mxCell>
        <mxCell id="-P8GrV4rSHHgKXdaOTVs-155" value="" style="triangle;whiteSpace=wrap;html=1;fontFamily=Georgia;strokeColor=#6c8ebf;rotation=-90;direction=west;" vertex="1" parent="1">
          <mxGeometry x="800.25" y="320" width="230" height="337.5" as="geometry" />
        </mxCell>
        <mxCell id="-P8GrV4rSHHgKXdaOTVs-156" value="" style="triangle;whiteSpace=wrap;html=1;fontFamily=Georgia;strokeColor=#6c8ebf;rotation=-90;direction=west;" vertex="1" parent="1">
          <mxGeometry x="798.5" y="392.25" width="90" height="120" as="geometry" />
        </mxCell>
        <mxCell id="-P8GrV4rSHHgKXdaOTVs-157" value="Image" style="rhombus;whiteSpace=wrap;html=1;fontFamily=Georgia;strokeColor=#6c8ebf;" vertex="1" parent="1">
          <mxGeometry x="788.5" y="402.25" width="50" height="50" as="geometry" />
        </mxCell>
        <mxCell id="-P8GrV4rSHHgKXdaOTVs-158" value="Son" style="rhombus;whiteSpace=wrap;html=1;fontFamily=Georgia;strokeColor=#6c8ebf;" vertex="1" parent="1">
          <mxGeometry x="848.5" y="402.25" width="50" height="50" as="geometry" />
        </mxCell>
        <mxCell id="-P8GrV4rSHHgKXdaOTVs-159" value="Données" style="rhombus;whiteSpace=wrap;html=1;fontFamily=Georgia;strokeColor=#6c8ebf;" vertex="1" parent="1">
          <mxGeometry x="818.5" y="437.25" width="50" height="50" as="geometry" />
        </mxCell>
        <mxCell id="-P8GrV4rSHHgKXdaOTVs-160" value="Virgile" style="text;html=1;strokeColor=#6c8ebf;align=center;verticalAlign=middle;whiteSpace=wrap;rounded=0;fontFamily=Georgia;fillColor=#dae8fc;" vertex="1" parent="1">
          <mxGeometry x="818.5" y="392.25" width="50" height="20" as="geometry" />
        </mxCell>
        <mxCell id="-P8GrV4rSHHgKXdaOTVs-161" value="" style="triangle;whiteSpace=wrap;html=1;fontFamily=Georgia;strokeColor=#6c8ebf;rotation=-90;direction=west;" vertex="1" parent="1">
          <mxGeometry x="943.5" y="392.25" width="90" height="120" as="geometry" />
        </mxCell>
        <mxCell id="-P8GrV4rSHHgKXdaOTVs-162" value="Image" style="rhombus;whiteSpace=wrap;html=1;fontFamily=Georgia;strokeColor=#6c8ebf;" vertex="1" parent="1">
          <mxGeometry x="933.5" y="402.25" width="50" height="50" as="geometry" />
        </mxCell>
        <mxCell id="-P8GrV4rSHHgKXdaOTVs-163" value="Son" style="rhombus;whiteSpace=wrap;html=1;fontFamily=Georgia;strokeColor=#6c8ebf;" vertex="1" parent="1">
          <mxGeometry x="993.5" y="402.25" width="50" height="50" as="geometry" />
        </mxCell>
        <mxCell id="-P8GrV4rSHHgKXdaOTVs-164" value="Données" style="rhombus;whiteSpace=wrap;html=1;fontFamily=Georgia;strokeColor=#6c8ebf;" vertex="1" parent="1">
          <mxGeometry x="963.5" y="437.25" width="50" height="50" as="geometry" />
        </mxCell>
        <mxCell id="-P8GrV4rSHHgKXdaOTVs-165" value="Rubicante" style="text;html=1;strokeColor=#6c8ebf;align=center;verticalAlign=middle;whiteSpace=wrap;rounded=0;fontFamily=Georgia;fillColor=#dae8fc;" vertex="1" parent="1">
          <mxGeometry x="956" y="392.25" width="65" height="20" as="geometry" />
        </mxCell>
        <mxCell id="-P8GrV4rSHHgKXdaOTVs-166" value="&lt;font color=&quot;#7ea6e0&quot;&gt;Projet&amp;nbsp;&lt;/font&gt;&lt;a href=&quot;https://fr.wikipedia.org/wiki/%CE%A9&quot; class=&quot;extiw&quot; title=&quot;w:Ω&quot; style=&quot;color: rgb(51 , 102 , 187) ; background: none rgb(255 , 255 , 255) ; font-family: sans-serif ; font-size: 14px ; text-align: left&quot;&gt;&lt;span lang=&quot;fr&quot; class=&quot;lang-fr&quot;&gt;Ω&lt;/span&gt;&lt;/a&gt;" style="text;html=1;strokeColor=none;fillColor=none;align=center;verticalAlign=middle;whiteSpace=wrap;rounded=0;fontFamily=Georgia;fontSize=23;fontColor=#EA6B66;" vertex="1" parent="1">
          <mxGeometry x="850.25" y="503.75" width="130" height="20" as="geometry" />
        </mxCell>
        <mxCell id="-P8GrV4rSHHgKXdaOTVs-169" style="edgeStyle=none;rounded=0;html=1;dashed=1;labelBackgroundColor=none;startArrow=none;startFill=0;startSize=8;endArrow=open;endFill=0;endSize=16;fontFamily=Verdana;fontSize=12;exitX=1;exitY=0.5;exitDx=0;exitDy=0;entryX=1;entryY=0.5;entryDx=0;entryDy=0;" edge="1" parent="1">
          <mxGeometry relative="1" as="geometry">
            <mxPoint x="230" y="484" as="sourcePoint" />
            <mxPoint x="210" y="505" as="targetPoint" />
            <Array as="points">
              <mxPoint x="270" y="495" />
            </Array>
          </mxGeometry>
        </mxCell>
        <mxCell id="-P8GrV4rSHHgKXdaOTVs-170" style="edgeStyle=none;rounded=0;html=1;dashed=1;labelBackgroundColor=none;startArrow=none;startFill=0;startSize=8;endArrow=open;endFill=0;endSize=16;fontFamily=Verdana;fontSize=12;exitX=0.53;exitY=-0.008;exitDx=0;exitDy=0;exitPerimeter=0;entryX=1.002;entryY=0.415;entryDx=0;entryDy=0;entryPerimeter=0;" edge="1" parent="1" source="39150e848f15840c-3" target="39150e848f15840c-2">
          <mxGeometry relative="1" as="geometry">
            <mxPoint x="854.5" y="740" as="sourcePoint" />
            <mxPoint x="890" y="600" as="targetPoint" />
            <Array as="points">
              <mxPoint x="860" y="700" />
            </Array>
          </mxGeometry>
        </mxCell>
        <mxCell id="-P8GrV4rSHHgKXdaOTVs-171" style="edgeStyle=none;rounded=0;html=1;dashed=1;labelBackgroundColor=none;startArrow=none;startFill=0;startSize=8;endArrow=open;endFill=0;endSize=16;fontFamily=Verdana;fontSize=12;exitX=0;exitY=0;exitDx=120;exitDy=260;exitPerimeter=0;entryX=1;entryY=0.564;entryDx=0;entryDy=0;entryPerimeter=0;" edge="1" parent="1" source="39150e848f15840c-3" target="39150e848f15840c-1">
          <mxGeometry relative="1" as="geometry">
            <mxPoint x="682.0799999999999" y="731.9000000000001" as="sourcePoint" />
            <mxPoint x="180" y="610" as="targetPoint" />
            <Array as="points">
              <mxPoint x="220" y="700" />
            </Array>
          </mxGeometry>
        </mxCell>
      </root>
    </mxGraphModel>
  </diagram>
</mxfile>
